<svg viewBox="0 0 500 200" fill="none" xmlns="http://www.w3.org/2000/svg">
<path d="M129.699 63.408V75.16H99.4352V93.776H122.627V105.32H99.4352V136H84.8752V63.408H129.699ZM352.736 63.408V75.16H333.392V136H318.832V75.16H299.488V63.408H352.736ZM421.08 63.408L396.536 110.728V136H381.976V110.728L357.328 63.408H373.76L389.36 96.584L404.856 63.408H421.08Z" fill="#5F2EEA"/>
<path d="M211.009 87.9907C205.456 70.8762 189.582 60 172.516 60C168.368 60 164.155 60.6369 159.99 61.9923C138.727 68.9002 127.083 91.7468 133.991 113.009C139.544 130.124 155.418 141 172.484 141C176.632 141 180.845 140.363 185.01 139.008C206.273 132.1 217.917 109.253 211.009 87.9907V87.9907ZM198.842 119.623L190.317 120.668L183.181 110.723L187.165 98.4423L198.777 94.8333L205.13 100.778C205.097 105.791 203.921 110.756 201.586 115.345C200.818 116.863 199.838 118.251 198.842 119.623V119.623ZM198.842 81.1808L197.144 89.8524L185.598 93.4452L175.113 85.8514V73.7994L182.854 69.5208C189.256 71.6438 194.841 75.7264 198.842 81.1808V81.1808ZM162.195 69.5371L169.887 73.7994V85.8514L159.402 93.4452L147.873 89.8524L146.223 81.2788C150.192 75.8244 155.679 71.7091 162.195 69.5371V69.5371ZM154.699 120.668L146.027 119.607C143.676 116.324 139.936 109.874 139.854 100.778L146.223 94.8333L157.835 98.4587L161.803 110.592L154.699 120.668V120.668ZM162.571 131.61L158.912 123.755L166.033 113.679H178.869L186.104 123.755L182.446 131.61C181.433 131.904 173.039 134.941 162.571 131.61V131.61Z" fill="#5F2EEA"/>
<path d="M295.009 87.9907C289.456 70.8762 273.582 60 256.516 60C252.368 60 248.155 60.6369 243.99 61.9923C222.727 68.9002 211.083 91.7468 217.991 113.009C223.544 130.124 239.418 141 256.484 141C260.632 141 264.845 140.363 269.01 139.008C290.273 132.1 301.917 109.253 295.009 87.9907ZM282.842 119.623L274.317 120.668L267.181 110.723L271.165 98.4423L282.777 94.8333L289.13 100.778C289.097 105.791 287.921 110.756 285.586 115.345C284.818 116.863 283.838 118.251 282.842 119.623ZM282.842 81.1808L281.144 89.8524L269.598 93.4452L259.113 85.8514V73.7994L266.854 69.5208C273.256 71.6437 278.841 75.7264 282.842 81.1808ZM246.195 69.5371L253.887 73.7994V85.8514L243.402 93.4452L231.873 89.8524L230.223 81.2788C234.192 75.8244 239.679 71.7091 246.195 69.5371ZM238.699 120.668L230.027 119.607C227.676 116.324 223.936 109.874 223.854 100.778L230.223 94.8333L241.835 98.4587L245.803 110.592L238.699 120.668ZM246.571 131.61L242.912 123.755L250.033 113.679H262.869L270.104 123.755L266.446 131.61C265.433 131.904 257.039 134.941 246.571 131.61Z" fill="#5F2EEA"/>
</svg>
