<svg viewBox="0 0 100 40" fill="none" xmlns="http://www.w3.org/2000/svg">
<path d="M29.1787 13.436V15.47H23.9407V18.692H27.9547V20.69H23.9407V26H21.4207V13.436H29.1787ZM67.7813 13.436V15.47H64.4333V26H61.9133V15.47H58.5653V13.436H67.7813ZM79.6099 13.436L75.3619 21.626V26H72.8419V21.626L68.5759 13.436H71.4199L74.1199 19.178L76.8019 13.436H79.6099Z" fill="black"/>
<path d="M42.6559 17.8379C41.6961 14.8798 38.9525 13 36.0028 13C35.2859 13 34.5576 13.1101 33.8378 13.3444C30.1627 14.5383 28.1502 18.4871 29.3441 22.1621C30.3039 25.1202 33.0475 27 35.9972 27C36.7141 27 37.4424 26.8899 38.1622 26.6556C41.8373 25.4617 43.8498 21.5129 42.6559 17.8379V17.8379ZM40.553 23.3052L39.0795 23.4859L37.846 21.7669L38.5348 19.6444L40.5417 19.0206L41.6397 20.048C41.634 20.9145 41.4308 21.7726 41.0272 22.5657C40.8945 22.8282 40.7251 23.0681 40.553 23.3052V23.3052ZM40.553 16.6609L40.2594 18.1597L38.2638 18.7806L36.4516 17.4681V15.3851L37.7896 14.6456C38.8961 15.0125 39.8614 15.7181 40.553 16.6609V16.6609ZM34.2189 14.6484L35.5484 15.3851V17.4681L33.7362 18.7806L31.7434 18.1597L31.4583 16.6778C32.1442 15.7351 33.0927 15.0238 34.2189 14.6484V14.6484ZM32.9233 23.4859L31.4245 23.3024C31.018 22.7351 30.3716 21.6202 30.3575 20.048L31.4583 19.0206L33.4652 19.6472L34.1512 21.7444L32.9233 23.4859V23.4859ZM34.2838 25.377L33.6515 24.0194L34.8822 22.2778H37.1008L38.3513 24.0194L37.719 25.377C37.544 25.4278 36.0931 25.9528 34.2838 25.377V25.377Z" fill="black"/>
<path d="M57.6559 17.8379C56.6961 14.8798 53.9525 13 51.0028 13C50.2859 13 49.5576 13.1101 48.8378 13.3444C45.1627 14.5383 43.1502 18.4871 44.3441 22.1621C45.3039 25.1202 48.0475 27 50.9972 27C51.7141 27 52.4424 26.8899 53.1622 26.6556C56.8373 25.4617 58.8498 21.5129 57.6559 17.8379V17.8379ZM55.553 23.3052L54.0795 23.4859L52.846 21.7669L53.5348 19.6444L55.5417 19.0206L56.6397 20.048C56.634 20.9145 56.4308 21.7726 56.0272 22.5657C55.8945 22.8282 55.7251 23.0681 55.553 23.3052V23.3052ZM55.553 16.6609L55.2594 18.1597L53.2638 18.7806L51.4516 17.4681V15.3851L52.7896 14.6456C53.8961 15.0125 54.8614 15.7181 55.553 16.6609V16.6609ZM49.2189 14.6484L50.5484 15.3851V17.4681L48.7362 18.7806L46.7434 18.1597L46.4583 16.6778C47.1442 15.7351 48.0927 15.0238 49.2189 14.6484V14.6484ZM47.9233 23.4859L46.4245 23.3024C46.018 22.7351 45.3716 21.6202 45.3575 20.048L46.4583 19.0206L48.4652 19.6472L49.1512 21.7444L47.9233 23.4859V23.4859ZM49.2838 25.377L48.6515 24.0194L49.8822 22.2778H52.1008L53.3513 24.0194L52.719 25.377C52.544 25.4278 51.0931 25.9528 49.2838 25.377V25.377Z" fill="black"/>
</svg>
