<svg width="348" height="96" viewBox="0 0 348 96" fill="none" xmlns="http://www.w3.org/2000/svg">
<path d="M134.509 33.9907C128.956 16.8762 113.082 6 96.0163 6C91.8682 6 87.6548 6.6369 83.4903 7.99234C62.2272 14.9002 50.5831 37.7468 57.4911 59.0093C63.0437 76.1238 78.9176 87 95.9837 87C100.132 87 104.345 86.3631 108.51 85.0077C129.773 78.0998 141.417 55.2532 134.509 33.9907ZM122.342 65.6232L113.817 66.6683L106.681 56.723L110.665 44.4423L122.277 40.8333L128.63 46.7776C128.597 51.7911 127.421 56.7556 125.086 61.3446C124.318 62.8633 123.338 64.2514 122.342 65.6232ZM122.342 27.1808L120.644 35.8524L109.098 39.4452L98.613 31.8514V19.7994L106.354 15.5208C112.756 17.6437 118.341 21.7264 122.342 27.1808ZM85.695 15.5371L93.387 19.7994V31.8514L82.9024 39.4452L71.3726 35.8524L69.7232 27.2788C73.6916 21.8244 79.1789 17.7091 85.695 15.5371ZM78.199 66.6683L69.5272 65.6069C67.1755 62.3244 63.4357 55.8738 63.354 46.7776L69.7232 40.8333L81.3346 44.4587L85.3031 56.5923L78.199 66.6683ZM86.0707 77.6099L82.4125 69.7548L89.5329 59.6788H102.369L109.604 69.7548L105.946 77.6099C104.933 77.9038 96.5389 80.9413 86.0707 77.6099Z" fill="white"/>
<path d="M218.509 33.9907C212.956 16.8762 197.082 6 180.016 6C175.868 6 171.655 6.6369 167.49 7.99234C146.227 14.9002 134.583 37.7468 141.491 59.0093C147.044 76.1238 162.918 87 179.984 87C184.132 87 188.345 86.3631 192.51 85.0077C213.773 78.0998 225.417 55.2532 218.509 33.9907ZM206.342 65.6232L197.817 66.6683L190.681 56.723L194.665 44.4423L206.277 40.8333L212.63 46.7776C212.597 51.7911 211.421 56.7556 209.086 61.3446C208.318 62.8633 207.338 64.2514 206.342 65.6232ZM206.342 27.1808L204.644 35.8524L193.098 39.4452L182.613 31.8514V19.7994L190.354 15.5208C196.756 17.6437 202.341 21.7264 206.342 27.1808ZM169.695 15.5371L177.387 19.7994V31.8514L166.902 39.4452L155.373 35.8524L153.723 27.2788C157.692 21.8244 163.179 17.7091 169.695 15.5371ZM162.199 66.6683L153.527 65.6069C151.176 62.3244 147.436 55.8738 147.354 46.7776L153.723 40.8333L165.335 44.4587L169.303 56.5923L162.199 66.6683ZM170.071 77.6099L166.412 69.7548L173.533 59.6788H186.369L193.604 69.7548L189.946 77.6099C188.933 77.9038 180.539 80.9413 170.071 77.6099Z" fill="white"/>
<path d="M53.8057 10.576V22.224H22.9177V41.88H47.6697V53.112H22.9177V84H8.25366V10.576H53.8057ZM277.955 10.576V22.224H257.675V84H243.011V22.224H222.835V10.576H277.955ZM345.203 10.576L320.347 58.312V84H305.579V58.312L280.619 10.576H297.467L313.067 42.712L328.667 10.576H345.203Z" fill="white"/>
</svg>
